<svg xmlns="http://www.w3.org/2000/svg" version="1.1" xmlns:xlink="http://www.w3.org/1999/xlink" width="512" height="512" x="0" y="0" viewBox="0 0 60 60" style="enable-background:new 0 0 512 512" xml:space="preserve" class=""><g><path d="M2 52c0 3.309 2.691 6 6 6h44c3.309 0 6-2.691 6-6V21.595c0-.797-.529-1.258-1.025-1.423-.496-.167-1.194-.115-1.673.521a1.506 1.506 0 0 0-.302.902V51c0 2.206-1.794 4-4 4H9c-2.206 0-4-1.794-4-4V9c0-2.206 1.794-4 4-4h32.952c.469 0 .917-.224 1.199-.599.349-.464.402-1.051.143-1.571S42.533 2 41.952 2H8C4.691 2 2 4.691 2 8z" fill="#fcfcfc" opacity="1" data-original="#000000"></path><path d="M27.284 33.669c-.182.21-.441.335-.719.346a.938.938 0 0 1-.742-.289l-9.286-9.212a1.182 1.182 0 0 0-1.662 0l-1.535 1.523c-.218.217-.338.505-.338.813s.12.597.338.813l11.771 11.681c.45.448 1.034.681 1.686.657a2.248 2.248 0 0 0 1.631-.785L57.721 5.307c.201-.233.3-.531.275-.838a1.14 1.14 0 0 0-.399-.786l-1.648-1.402a1.183 1.183 0 0 0-1.659.128l-27.005 31.26z" fill="#fcfcfc" opacity="1" data-original="#000000"></path></g></svg>